<?xml version="1.0" encoding="utf-8"?>
<!-- Generator: Adobe Illustrator 21.1.0, SVG Export Plug-In . SVG Version: 6.00 Build 0)  -->
<svg version="1.1" id="Ebene_1" xmlns="http://www.w3.org/2000/svg" xmlns:xlink="http://www.w3.org/1999/xlink" x="0px" y="0px"
	 viewBox="0 0 841.9 595.3" style="enable-background:new 0 0 841.9 595.3;" xml:space="preserve">
<style type="text/css">
	.st0{fill:#008AD2;}
</style>
<g>
	<path class="st0" d="M367.8,293.2c7.4-2.6,12-8.2,12-16.3c0-11.1-8.4-18.8-22-18.8h-8.4v7.4h9.1c7.7,0,13.9,3.6,13.9,11.4
		c0,8-6.3,11.4-13.9,11.4h-9.1v7.4h7.4c5.2,0.1,7.1,1.2,11.2,7.6l3.8,5.8h8.8l-4.7-7.3C372.7,297,370.3,294.4,367.8,293.2
		 M412.9,309.2l21.1-51h-8.7l-14.7,36.5l-14.8-36.5h-8.7l21.2,51H412.9z M462.9,293.2c7.4-2.6,12-8.2,12-16.3
		c0-11.1-8.4-18.8-22-18.8h-7.9v7.4h8.6c7.7,0,13.9,3.6,13.9,11.4c0,8-6.3,11.4-13.9,11.4h-8.6v7.4h6.9c5.2,0.1,7.1,1.2,11.2,7.6
		l3.8,5.8h8.8l-4.7-7.3C467.7,297,465.4,294.4,462.9,293.2 M492.5,305.7c0-2.3-2-4.1-4.4-4.1c-2.6,0-4.5,1.8-4.5,4.1
		c0,2.3,2,4,4.5,4C490.6,309.7,492.5,307.9,492.5,305.7"/>
	<path class="st0" d="M410.7,324.3c3.1,0,5.6,2.4,5.6,5.7c0,3.3-2.5,5.7-5.6,5.7s-5.6-2.4-5.6-5.7
		C405.1,326.7,407.6,324.3,410.7,324.3 M410.7,322.8c-3.9,0-7.1,3.2-7.1,7.1c0,4,3.2,7.1,7.1,7.1s7.1-3.2,7.1-7.1
		C417.8,326,414.6,322.8,410.7,322.8 M396.4,337v-14h-0.9l-5.9,7.5l-5.9-7.5h-0.9v14h1.6v-11l5.2,6.6l5.2-6.6v11H396.4z M375.3,337
		v-14h-0.9l-5.9,7.5l-5.9-7.5h-0.9v14h1.6v-11l5.2,6.6l5.2-6.6v11H375.3z M352.6,335.5v-11.1h1.6V323h-4.8v1.5h1.6v11.1h-1.6v1.5
		h4.8v-1.5H352.6z"/>
</g>
</svg>
